<svg xmlns="http://www.w3.org/2000/svg" width="16" height="13" viewBox="0 0 16 13">
  <path id="guide" d="M1.25,2A1.25,1.25,0,0,0,0,3.25v8.5A1.25,1.25,0,0,0,1.25,13H5a3.076,3.076,0,0,1,1.809.448.96.96,0,0,1,.441.8.75.75,0,0,0,1.5,0,.96.96,0,0,1,.441-.8A3.076,3.076,0,0,1,11,13h3.75A1.25,1.25,0,0,0,16,11.75V3.25A1.25,1.25,0,0,0,14.75,2H11A3.875,3.875,0,0,0,8.228,3c-.081.08-.157.161-.228.246A3.131,3.131,0,0,0,7.772,3,3.875,3.875,0,0,0,5,2Zm7.5,9.967A4.977,4.977,0,0,1,11,11.5h3.5v-8H11a2.39,2.39,0,0,0-1.728.577,1.816,1.816,0,0,0-.522,1.34v6.55Zm-1.5,0V5.417a1.816,1.816,0,0,0-.522-1.34A2.39,2.39,0,0,0,5,3.5H1.5v8H5A4.977,4.977,0,0,1,7.25,11.967Z" transform="translate(0 -2)" fill="#fff" fill-rule="evenodd"/>
</svg>
