<svg xmlns="http://www.w3.org/2000/svg" width="14" height="10.997" viewBox="0 0 14 10.997">
  <g id="list-stars" transform="translate(-1 -2.004)">
    <path id="Path_6" data-name="Path 6" d="M5,11.5a.5.5,0,0,1,.5-.5h9a.5.5,0,0,1,0,1h-9A.5.5,0,0,1,5,11.5Zm0-4A.5.5,0,0,1,5.5,7h9a.5.5,0,0,1,0,1h-9A.5.5,0,0,1,5,7.5Zm0-4A.5.5,0,0,1,5.5,3h9a.5.5,0,0,1,0,1h-9A.5.5,0,0,1,5,3.5Z" fill="#fff" fill-rule="evenodd"/>
    <path id="Path_7" data-name="Path 7" d="M2.242,2.194a.27.27,0,0,1,.516,0l.162.53a.272.272,0,0,0,.258.194h.551a.275.275,0,0,1,.164.493l-.468.363a.277.277,0,0,0-.094.3l.173.569a.272.272,0,0,1-.423.3l-.417-.324a.267.267,0,0,0-.328,0l-.417.323a.271.271,0,0,1-.423-.3l.173-.57a.277.277,0,0,0-.094-.3l-.468-.363a.275.275,0,0,1,.164-.493h.55a.271.271,0,0,0,.259-.194l.162-.53Zm0,4a.27.27,0,0,1,.516,0l.162.53a.272.272,0,0,0,.258.194h.551a.275.275,0,0,1,.164.493l-.468.363a.277.277,0,0,0-.094.3l.173.569a.272.272,0,0,1-.423.3l-.417-.324a.267.267,0,0,0-.328,0l-.417.323a.271.271,0,0,1-.423-.3l.173-.57a.277.277,0,0,0-.094-.3l-.468-.363a.275.275,0,0,1,.164-.493h.55a.271.271,0,0,0,.259-.194l.162-.53Zm0,4a.27.27,0,0,1,.516,0l.162.53a.272.272,0,0,0,.258.194h.551a.275.275,0,0,1,.164.493l-.468.363a.277.277,0,0,0-.094.3l.173.569a.272.272,0,0,1-.423.3l-.417-.324a.267.267,0,0,0-.328,0l-.417.323a.271.271,0,0,1-.423-.3l.173-.57a.277.277,0,0,0-.094-.3l-.468-.363a.275.275,0,0,1,.164-.493h.55a.271.271,0,0,0,.259-.194l.162-.53Z" fill="#fff"/>
  </g>
</svg>
