<svg xmlns="http://www.w3.org/2000/svg" width="336.219" height="290.671" viewBox="0 0 336.219 290.671">
  <g id="puzzle" transform="translate(0 -22.774)">
    <g id="Group_3" data-name="Group 3">
      <path id="Path_8" data-name="Path 8" d="M304.988,22.774H31.231A31.268,31.268,0,0,0,0,54.006V282.213a31.268,31.268,0,0,0,31.231,31.232H304.988a31.267,31.267,0,0,0,31.231-31.232V54.006a31.266,31.266,0,0,0-31.231-31.232ZM18,54.006A13.247,13.247,0,0,1,31.231,40.774H159.109V61.306a35.6,35.6,0,0,0,0,68.884v28.919H123.524a35.6,35.6,0,0,0-68.883,0H18Zm141.11,213.06v28.38H31.231A13.248,13.248,0,0,1,18,282.213V177.11H62.488a9,9,0,0,0,9-9,17.595,17.595,0,1,1,35.19,0,9,9,0,0,0,9,9H159.11v36.767a9,9,0,0,0,9,9,17.595,17.595,0,1,1,0,35.189A9,9,0,0,0,159.11,267.066Zm159.108,15.148a13.244,13.244,0,0,1-13.23,13.231H177.109V274.913a35.6,35.6,0,0,0,0-68.884V177.11h36.4a35.6,35.6,0,0,0,68.884,0h35.825v105.1Zm0-123.1H274.547a9,9,0,0,0-9,9,17.6,17.6,0,1,1-35.19,0,9,9,0,0,0-9-9H177.109V122.343a9,9,0,0,0-9-9,17.595,17.595,0,1,1,0-35.189,9,9,0,0,0,9-9V40.774H304.988A13.247,13.247,0,0,1,318.22,54.006v105.1Z"/>
    </g>
  </g>
</svg>
